<?xml version="1.0" encoding="UTF-8" standalone="no"?>
<svg
   viewBox="0 0 34 45"
   version="1.1"
   id="svg76"
   sodipodi:docname="business-profit.svg"
   width="34"
   height="45"
   inkscape:version="1.1 (c68e22c387, 2021-05-23)"
   xmlns:inkscape="http://www.inkscape.org/namespaces/inkscape"
   xmlns:sodipodi="http://sodipodi.sourceforge.net/DTD/sodipodi-0.dtd"
   xmlns="http://www.w3.org/2000/svg"
   xmlns:svg="http://www.w3.org/2000/svg">
  <defs
     id="defs80" />
  <sodipodi:namedview
     id="namedview78"
     pagecolor="#ffffff"
     bordercolor="#666666"
     borderopacity="1.0"
     inkscape:pageshadow="2"
     inkscape:pageopacity="0.0"
     inkscape:pagecheckerboard="0"
     showgrid="false"
     inkscape:zoom="6.8030303"
     inkscape:cx="15.654788"
     inkscape:cy="33.587973"
     inkscape:window-width="1838"
     inkscape:window-height="1057"
     inkscape:window-x="-8"
     inkscape:window-y="-8"
     inkscape:window-maximized="1"
     inkscape:current-layer="svg76" />
  <path
     fill="#ffc687"
     d="m 29.815,16.619 0.039,0.449 2.772,-0.242 c 0.144,0.189 0.245,0.453 0.282,0.842 0.381,3.995 -5.266,4.536 -5.648,0.54 -0.154,-1.617 1.061,-1.464 2.555,-1.589 z"
     id="path14" />
  <path
     fill="#f9a267"
     d="m 29.723,19.427 a 1.6,1.6 0 0 1 0.167,1.448 l -0.09,0.077 c 1.527,0.191 2.953,-0.991 3.105,-2.686 a 0.74,0.74 0 0 1 -0.618,0.344 0.715,0.715 0 0 1 -0.562,-0.268 c -0.074,0.255 -0.264,0.451 -0.482,0.484 -0.259,0.036 -0.511,-0.162 -0.647,-0.454 -0.015,0.139 -0.128,0.273 -0.259,0.354 -0.172,0.084 -0.394,0.076 -0.579,0.009 a 1.227,1.227 0 0 1 -0.473,-0.359 c -0.062,0.24 -0.233,0.49 -0.476,0.552 0.357,-0.032 0.708,0.2 0.914,0.499 z"
     id="path16" />
  <ellipse
     cx="31.034"
     cy="17.031"
     fill="#ffc687"
     rx="0.61400002"
     ry="0.97500002"
     transform="rotate(175.003,31.035,17.03)"
     id="ellipse18" />
  <ellipse
     cx="29.809"
     cy="17.138"
     fill="#ffc687"
     rx="0.64600003"
     ry="1.026"
     transform="rotate(170.716,29.81,17.138)"
     id="ellipse20" />
  <ellipse
     cx="28.722"
     cy="17.274"
     fill="#ffc687"
     rx="0.64600003"
     ry="1.026"
     transform="rotate(167.905,28.722,17.275)"
     id="ellipse22" />
  <path
     fill="#ffc687"
     d="m 31.662,17.133 a 0.679,0.679 0 0 0 0.042,0.162 l 1.013,-0.088 0.087,1 c 0.114,-0.12 0.164,-0.497 0.104,-1.182 -0.048,-0.548 -0.416,-0.971 -0.758,-0.941 -0.343,0.029 -0.565,0.49 -0.488,1.049 z M 3.688,16.619 3.649,17.068 0.877,16.826 c -0.144,0.189 -0.245,0.453 -0.282,0.842 -0.381,3.995 5.266,4.536 5.648,0.54 0.154,-1.617 -1.061,-1.464 -2.555,-1.589 z"
     id="path24" />
  <path
     fill="#f9a267"
     d="m 3.781,19.427 a 1.6,1.6 0 0 0 -0.167,1.448 l 0.09,0.077 C 2.177,21.143 0.751,19.961 0.599,18.266 a 0.74,0.74 0 0 0 0.618,0.344 0.715,0.715 0 0 0 0.562,-0.268 c 0.074,0.255 0.264,0.451 0.482,0.484 0.259,0.036 0.511,-0.162 0.647,-0.454 0.015,0.139 0.128,0.273 0.259,0.354 0.172,0.084 0.394,0.076 0.579,0.009 0.186,-0.08 0.349,-0.204 0.473,-0.359 0.062,0.24 0.233,0.49 0.476,0.552 -0.357,-0.032 -0.709,0.2 -0.914,0.499 z"
     id="path26" />
  <ellipse
     cx="2.4690001"
     cy="17.031"
     fill="#ffc687"
     rx="0.61400002"
     ry="0.97500002"
     transform="rotate(4.997,2.472,17.028)"
     id="ellipse28" />
  <ellipse
     cx="3.6949999"
     cy="17.138"
     fill="#ffc687"
     rx="0.64600003"
     ry="1.026"
     transform="rotate(9.284,3.697,17.137)"
     id="ellipse30" />
  <ellipse
     cx="4.7810001"
     cy="17.274"
     fill="#ffc687"
     rx="0.64600003"
     ry="1.026"
     transform="rotate(12.095,4.782,17.271)"
     id="ellipse32" />
  <path
     fill="#dee1e2"
     d="m 31.805,20.511 c 0.214,7.417 -7.684,10.136 -7.978,10.483 L 23.613,43.563 A 20.832,20.832 0 0 1 16.749,44.57 20.806,20.806 0 0 1 9.894,43.563 L 9.68,30.995 C 9.386,30.647 1.488,27.928 1.702,20.512 l 3.352,0.116 c 0.134,0.499 0.517,5.277 6.677,6.909 l 3.093,-1.515 0.071,0.624 1.854,1.302 1.863,-1.302 0.071,-0.624 3.093,1.515 c 6.16,-1.631 6.543,-6.41 6.677,-6.909 z"
     id="path34" />
  <path
     fill="#ffc687"
     d="M 1.842,17.133 A 0.679,0.679 0 0 1 1.8,17.295 l -1.014,-0.088 -0.087,1 C 0.585,18.087 0.535,17.71 0.595,17.025 c 0.048,-0.548 0.416,-0.971 0.758,-0.941 0.343,0.029 0.565,0.49 0.489,1.049 z"
     id="path36" />
  <path
     fill="#e72a28"
     d="m 16.743,40.513 1.493,-1.456 -1.132,-9.578 0.835,-1.152 -0.587,-0.623 -0.601,0.136 -0.611,-0.138 -0.582,0.625 0.829,1.152 -1.173,9.578 z"
     id="path38" />
  <path
     fill="#ffc687"
     d="m 18.751,27.894 c 0.111,-0.227 0.221,-0.465 0.331,-0.728 0.167,-0.294 0.211,-0.613 -0.029,-0.851 a 1.893,1.893 0 0 1 -0.562,-1.348 v -0.021 h -3.448 c -0.013,0.52 -0.229,0.989 -0.585,1.328 -0.247,0.235 -0.194,0.55 -0.042,0.855 0.088,0.28 0.183,0.529 0.283,0.766 a 49.776,49.776 0 0 1 4.052,-0.001 z"
     id="path40" />
  <path
     fill="#f9a267"
     d="m 15.895,25.609 c 0.925,0.27 1.564,1.398 1.841,2.533 h 0.889 c 0.154,-0.297 0.306,-0.613 0.457,-0.976 0.167,-0.294 0.211,-0.613 -0.029,-0.851 a 1.893,1.893 0 0 1 -0.562,-1.348 v -0.021 h -3.448 a 1.862,1.862 0 0 1 -0.081,0.48 c 0.141,0.028 0.288,0.053 0.448,0.076 0.161,0.026 0.332,0.062 0.485,0.107 z"
     opacity="0.5"
     id="path42" />
  <path
     fill="#f4f4f4"
     d="m 19.85,26.585 c -0.484,1.183 -1.256,2.167 -2.151,3.066 -0.216,-0.729 -0.518,-1.346 -0.948,-1.798 a 8.347,8.347 0 0 0 1.906,-2.058 z m -6.194,0 c 0.326,0.992 1.135,2.021 2.151,3.066 0.156,-0.744 0.453,-1.359 0.944,-1.798 -0.833,-0.61 -1.503,-1.282 -1.902,-2.058 z"
     id="path44" />
  <path
     fill="#ffc687"
     d="m 6.63,17.858 c 0.811,2.722 4.706,1.813 3.816,-0.924 -0.367,-1.129 -1.492,-1.831 -2.532,-1.58 -1.04,0.25 -1.623,1.366 -1.284,2.504 z"
     id="path46" />
  <path
     fill="#f9a267"
     d="M 7.935,18.614 C 7.701,17.989 7.583,17.18 8.127,16.813 a 0.698,0.698 0 0 1 0.872,0.106 c 0.21,0.23 0.162,0.539 -0.149,0.502 C 8.828,17.388 8.778,17.354 8.686,17.351 A 0.27,0.27 0 0 0 8.595,17.348 c -0.224,0.063 -0.333,0.385 -0.222,0.616 a 0.627,0.627 0 0 0 0.615,0.334 C 9.486,18.24 9.788,17.557 9.492,16.95 A 1.187,1.187 0 0 0 8.763,16.325 1.033,1.033 0 0 0 7.819,16.549 c -0.613,0.553 -0.59,1.767 0.116,2.065 z"
     id="path48" />
  <path
     fill="#ffc687"
     d="m 26.876,17.858 c -0.811,2.722 -4.706,1.814 -3.816,-0.924 0.367,-1.129 1.492,-1.831 2.533,-1.58 1.039,0.25 1.623,1.366 1.283,2.504 z"
     id="path50" />
  <path
     fill="#f9a267"
     d="m 25.572,18.614 c 0.233,-0.624 0.353,-1.433 -0.192,-1.801 a 0.698,0.698 0 0 0 -0.872,0.106 c -0.114,0.125 -0.178,0.329 -0.075,0.439 0.056,0.06 0.142,0.073 0.224,0.063 0.022,-0.033 0.072,-0.067 0.164,-0.07 a 0.27,0.27 0 0 1 0.091,-0.003 c 0.224,0.063 0.333,0.385 0.221,0.616 a 0.626,0.626 0 0 1 -0.615,0.334 c -0.233,-0.027 -0.424,-0.197 -0.526,-0.409 a 1.112,1.112 0 0 1 0.023,-0.939 c 0.143,-0.303 0.426,-0.542 0.729,-0.625 0.341,-0.09 0.694,0.004 0.944,0.224 0.618,0.558 0.588,1.767 -0.116,2.065 z"
     id="path52" />
  <path
     fill="#ffc687"
     d="M 9.347,19.757 C 9.064,18.441 8.944,16.992 9.003,15.779 c 0.302,-5.288 3.769,-9.387 7.75,-9.391 3.981,0.005 7.448,4.104 7.75,9.391 0.631,13.089 -13.835,12.068 -15.156,3.978 z"
     id="path54" />
  <path
     fill="#f9a267"
     d="M 22.103,9.285 C 18.517,9.409 14.928,9.408 11.343,9.283 10.319,6.871 8.989,11.96 9.542,14.957 c 1.236,-1.43 2.25,-2.877 1.952,-5.054 3.057,2.352 7.229,2.547 10.415,0.892 0.107,1.32 0.609,2.603 1.412,3.706 L 23.174,10.927 A 9.815,9.815 0 0 0 22.103,9.285 Z"
     id="path56" />
  <path
     fill="#352623"
     d="M 23.718,2.135 C 18.934,-0.21 8.732,1.001 9.853,6.265 9.848,6.267 8.315,5.578 7.486,8.74 c -0.885,5.32 1.263,8.727 1.872,9.45 -0.404,-0.745 0.259,-3.534 0.683,-4.174 0.857,-1.262 1.517,-3.095 1.191,-4.669 3.433,2.795 8.404,2.671 11.126,0.757 -0.069,1.377 0.164,2.839 0.635,3.931 0.287,0.672 0.656,1.203 0.915,1.935 0.249,0.724 0.347,1.779 0.048,2.373 0.292,-0.551 0.702,-0.938 0.905,-1.615 1.091,-2.586 1.031,-7.049 0.192,-10.353 0.886,-1.642 0.13,-3.489 -1.335,-4.24 z"
     id="path58" />
  <path
     fill="#f9a267"
     d="m 15.633,18.79 c -0.005,0.643 0.5,1.169 1.123,1.169 0.623,0 1.12,-0.526 1.115,-1.169 a 0.304,0.304 0 0 0 -0.017,-0.122 c -0.051,0.594 -0.517,1.047 -1.098,1.047 -0.581,0 -1.054,-0.454 -1.106,-1.047 a 0.304,0.304 0 0 0 -0.017,0.122 z"
     id="path60" />
  <path
     fill="#4c3a35"
     d="m 18.09,14.063 c 1.191,0.14 2.381,0.35 3.584,0.624 l -0.078,-0.699 a 39.712,39.712 0 0 0 -2.91,-1.05 c -0.196,0.373 -0.395,0.749 -0.596,1.125 z m -2.982,0 c -1.191,0.14 -2.38,0.35 -3.584,0.624 l 0.078,-0.699 a 39.712,39.712 0 0 1 2.91,-1.05 c 0.196,0.373 0.395,0.749 0.596,1.125 z m 1.413,-5.64 c 1.656,0.906 3.701,1.342 5.613,1.026 -2.14,0.958 -4.656,1.191 -6.971,0.643 C 13.79,9.773 12.464,9.153 11.53,8.17 L 11.504,8.143 C 10.122,6.619 10.061,3.299 14.549,2.35 c 1.527,-0.323 3.093,-0.345 4.648,-0.36 0.927,-0.014 1.981,0.037 2.551,0.777 0.644,0.841 0.401,2.269 -1.112,3.12 C 20.087,6.21 19.467,6.41 18.846,6.604 21.058,6.809 22.89,6.43 24.518,5.2 22.762,8.488 19.168,9.037 16.521,8.423 Z"
     id="path62" />
  <path
     fill="#333338"
     d="m 20.331,17.227 a 3.866,3.866 0 0 0 -1.604,0 c -0.572,-0.704 -0.059,-1.909 0.806,-1.911 0.857,0.002 1.369,1.208 0.798,1.911 z"
     id="path64" />
  <path
     fill="#ffffff"
     d="m 19.59,15.699 c -0.047,0.066 0.01,0.189 0.143,0.267 0.132,0.078 0.283,0.076 0.324,0.004 0.041,-0.072 -0.038,-0.182 -0.164,-0.254 -0.126,-0.073 -0.256,-0.083 -0.303,-0.017 z"
     id="path66" />
  <path
     fill="#333338"
     d="m 13.238,17.227 a 3.869,3.869 0 0 1 1.604,0 c 0.572,-0.704 0.06,-1.909 -0.806,-1.911 -0.857,0.002 -1.369,1.208 -0.798,1.911 z"
     id="path68" />
  <path
     fill="#ffffff"
     d="m 14.102,15.699 c -0.047,0.066 0.01,0.189 0.143,0.267 0.132,0.078 0.283,0.076 0.324,0.004 0.041,-0.072 -0.038,-0.182 -0.164,-0.254 -0.127,-0.073 -0.256,-0.083 -0.303,-0.017 z"
     id="path70" />
  <path
     fill="#8c231f"
     d="m 13.078,21.109 c 0.331,0.981 1.683,2.859 3.676,2.938 1.993,-0.079 3.344,-1.957 3.676,-2.938 -2.447,1.185 -4.964,1.172 -7.352,0 z"
     id="path72" />
  <path
     fill="#ffffff"
     d="m 14.114,21.53 c 0.358,0.861 1.359,1.064 2.64,1.06 1.281,0.003 2.284,-0.2 2.64,-1.063 -1.764,0.604 -3.547,0.6 -5.28,0.003 z m 4.714,1.708 c -0.443,-0.026 -1.224,0.311 -2.074,0.307 -0.85,0.003 -1.631,-0.334 -2.074,-0.307 1.346,1.047 2.755,1.083 4.148,0 z"
     id="path74" />
</svg>
