<?xml version="1.0" encoding="UTF-8" standalone="no"?>
<svg
   viewBox="0 0 512 512"
   version="1.1"
   id="svg8"
   sodipodi:docname="manager.svg"
   inkscape:version="1.1 (c68e22c387, 2021-05-23)"
   xmlns:inkscape="http://www.inkscape.org/namespaces/inkscape"
   xmlns:sodipodi="http://sodipodi.sourceforge.net/DTD/sodipodi-0.dtd"
   xmlns="http://www.w3.org/2000/svg"
   xmlns:svg="http://www.w3.org/2000/svg">
  <defs
     id="defs12" />
  <sodipodi:namedview
     id="namedview10"
     pagecolor="#ffffff"
     bordercolor="#666666"
     borderopacity="1.0"
     inkscape:pageshadow="2"
     inkscape:pageopacity="0.0"
     inkscape:pagecheckerboard="0"
     showgrid="false"
     inkscape:zoom="0.87695313"
     inkscape:cx="473.79955"
     inkscape:cy="273.10468"
     inkscape:window-width="1838"
     inkscape:window-height="1057"
     inkscape:window-x="-8"
     inkscape:window-y="-8"
     inkscape:window-maximized="1"
     inkscape:current-layer="svg8" />
  <path
     d="M256 260.2c61.6 0 106.2-86.3 106.2-144.4C362.2 53 314.6 2 256 2S149.8 53 149.8 115.7c0 58.2 44.6 144.5 106.2 144.5zm0-242.1c49.7 0 90.1 43.8 90.1 97.6 0 56.6-42.4 128.3-90.1 128.3s-90.1-71.8-90.1-128.3c0-53.8 40.4-97.6 90.1-97.6z"
     id="path2"
     style="fill:#000000" />
  <path
     d="M446.9 307.8c-1.8-2.5-3.7-5-5.6-7.3-17.8-21.9-41.1-37.4-67.3-44.7l-26.2-7.3c-1-.3-2.1-.5-3.1-.8l-8.6-2.2-58 130.5-5.4-83.7h7.5v-16.1h-48.4v16.1h7.5l-5.4 83.7-58-130.5-8.6 2.2c-1 .2-2.1.5-3.1.8l-26.2 7.3c-26.2 7.3-49.5 22.7-67.3 44.7-1.9 2.4-3.8 4.8-5.6 7.3C44.6 336.7 36 375.4 41.6 414l13.9 96h400.9l13.9-96c5.7-38.6-2.9-77.3-23.4-106.2zm-191.4-15.5h1l7.5 115.4-8 17.9-8-17.9 7.5-115.4zm198.9 119.4-11.9 82.1H393v-64.5h-16.1v64.5H135.1v-64.5H119v64.5H69.5l-11.9-82.1c-5-34.6 2.5-69.1 20.7-94.6 1.6-2.2 3.2-4.4 5-6.5 15.7-19.3 36.2-32.9 59.1-39.3l24.4-6.8L256 465.4l89.3-200.8 24.4 6.8c23 6.4 43.4 20 59.1 39.3 1.7 2.1 3.4 4.3 5 6.5 18.1 25.5 25.7 59.9 20.6 94.5z"
     id="path4" />
  <path
     d="M336.6 364.9h80.6V381h-80.6z"
     id="path6" />
  <path
     style="fill:#000000;stroke:#000000;stroke-width:1.0992"
     d="M 247.36167,242.8499 C 225.79933,238.94774 204.32868,220.45061 187.73895,191.48446 168.91035,158.60919 161.83114,119.76455 169.32174,90.426726 180.18281,47.888121 215.57674,18.530067 256,18.530067 c 43.97596,0 81.4178,34.608809 88.68756,81.977033 1.14205,7.4413 1.1253,23.11364 -0.0336,31.48399 -3.33876,24.11399 -12.68636,48.72742 -26.20034,68.98887 -20.75247,31.11409 -46.5547,46.31045 -71.0919,41.86994 z"
     id="path884" />
  <path
     style="fill:#000000;stroke:#000000;stroke-width:1.0992"
     d="m 68.538039,485.06013 c -0.666219,-4.62539 -3.546014,-24.44543 -6.399543,-44.04454 -4.468016,-30.688 -5.234406,-37.0594 -5.520824,-45.89755 -1.466748,-45.26017 17.741478,-84.2003 53.468738,-108.39521 7.44126,-5.0393 18.8363,-10.70585 26.75101,-13.30279 8.8425,-2.90136 29.33248,-8.47057 29.74479,-8.08469 0.32828,0.30724 41.87358,93.62301 77.89765,174.96755 6.14517,13.87616 11.31816,25.22939 11.49553,25.22939 0.17737,0 19.80553,-43.80935 43.61814,-97.35412 23.81261,-53.54476 43.88942,-98.66675 44.61514,-100.27107 l 1.31948,-2.91695 10.11343,2.78026 c 23.92496,6.57714 34.10722,10.76374 46.60341,19.16173 22.52466,15.13756 38.91474,37.05595 47.21733,63.14358 4.50553,14.15684 5.82347,23.63784 5.74611,41.33631 l -0.0611,13.96882 -5.2361,35.63474 c -2.87986,19.59911 -5.78162,39.41915 -6.44836,44.04454 l -1.21225,8.4098 h -24.42155 -24.42154 v -32.21381 -32.2138 h -8.26726 -8.26726 v 32.2138 32.21381 H 256 135.12695 v -32.21381 -32.2138 h -8.26726 -8.26726 v 32.2138 32.21381 H 94.170887 69.749346 Z M 417.35412,372.88196 v -8.26726 h -40.48107 -40.48107 v 8.26726 8.26726 h 40.48107 40.48107 z"
     id="path923" />
  <path
     style="fill:#000000;stroke:#000000;stroke-width:1.0992"
     d="m 252.11083,416.06594 c -1.93757,-4.31472 -3.5344,-8.61227 -3.5485,-9.55011 -0.0532,-3.53466 7.14725,-113.17062 7.43255,-113.17062 0.28612,0 7.49896,109.65803 7.44388,113.17062 -0.0266,1.69634 -6.73994,17.39508 -7.43876,17.39508 -0.20147,0 -1.9516,-3.53023 -3.88917,-7.84497 z"
     id="path962" />
</svg>
