<?xml version="1.0" encoding="UTF-8" standalone="no"?>
<svg
   data-name="Layer 2"
   viewBox="0 0 100 100"
   version="1.1"
   id="svg6"
   sodipodi:docname="manager.svg"
   inkscape:version="1.1 (c68e22c387, 2021-05-23)"
   xmlns:inkscape="http://www.inkscape.org/namespaces/inkscape"
   xmlns:sodipodi="http://sodipodi.sourceforge.net/DTD/sodipodi-0.dtd"
   xmlns="http://www.w3.org/2000/svg"
   xmlns:svg="http://www.w3.org/2000/svg">
  <defs
     id="defs10" />
  <sodipodi:namedview
     id="namedview8"
     pagecolor="#ffffff"
     bordercolor="#666666"
     borderopacity="1.0"
     inkscape:pageshadow="2"
     inkscape:pageopacity="0.0"
     inkscape:pagecheckerboard="0"
     showgrid="false"
     inkscape:zoom="8.98"
     inkscape:cx="49.944321"
     inkscape:cy="50.055679"
     inkscape:window-width="1838"
     inkscape:window-height="1057"
     inkscape:window-x="-8"
     inkscape:window-y="-8"
     inkscape:window-maximized="1"
     inkscape:current-layer="svg6" />
  <path
     d="M6.74,97H93.26a2,2,0,0,0,2-2V85.13a16.18,16.18,0,0,0-6.61-13C80.81,66.4,74.38,63.06,69.09,62a1.9,1.9,0,0,0-.54-.72l-4.75-3.9a2,2,0,0,0-2.62.07L50,67.65,38.82,57.42a2,2,0,0,0-2.62-.07l-4.75,3.9a1.9,1.9,0,0,0-.54.72c-5.29,1.09-11.72,4.43-19.55,10.17a16.16,16.16,0,0,0-6.62,13V95A2,2,0,0,0,6.74,97ZM50,72.94l5.41,4.44L52.52,81h-5l-2.89-3.64ZM47.92,85h4.16L55,93H45Zm43.34.11V93h-32l-3.5-9.62,2.75-3.47,1.12.92a2,2,0,0,0,1.27.46,2.24,2.24,0,0,0,.51-.07A2,2,0,0,0,62.76,80l5.47-14.13c4.68,1,10.74,4.14,18,9.49A12.14,12.14,0,0,1,91.26,85.13ZM62.6,61.54l2.3,1.88L60,76l-7-5.72Zm-25.2,0L47,70.27,40,76,35.1,63.42ZM8.74,85.13a12.14,12.14,0,0,1,5-9.76c7.31-5.35,13.37-8.53,18-9.49L37.24,80a2,2,0,0,0,1.36,1.21,2.24,2.24,0,0,0,.51.07,2,2,0,0,0,1.27-.46l1.12-.92,2.75,3.47L40.75,93h-32Z"
     id="path2" />
  <path
     d="M29.31,26.42a26.53,26.53,0,0,0,1.74,10.75,26.19,26.19,0,0,0,1.54,10.39c2.24,6,11.22,12.62,16.28,13.22H51.2c5-.6,14-7.24,16.29-13.22A26.14,26.14,0,0,0,69,36.78l0-1.72c1.2-2.75,2.61-10,1.69-14.17-.23-1.7-2.56-15.66-18.84-17.64-12.51-1.52-16.45,4.4-19,8.32a13.92,13.92,0,0,1-2.12,2.72c-3.8,3.2-6.53,5.93-6.64,6a2,2,0,0,0-.59,1.5,2,2,0,0,0,.72,1.45A25.93,25.93,0,0,0,29.31,26.42ZM63.75,46.15c-1.66,4.38-9.16,10.11-12.92,10.64H49.24C45.48,56.26,38,50.53,36.33,46.15a22.26,22.26,0,0,1-1.26-9.07V37a.19.19,0,0,0,0-.08s.34-5.62,3.75-7.79a26.64,26.64,0,0,0,6,0c7.78-1,12.07-3.66,13.94-5.18,2.54,1.48,4.5,4.94,6.26,10.94l0,2a2.09,2.09,0,0,0,0,.25A22.37,22.37,0,0,1,63.75,46.15ZM33.28,17.35a16.76,16.76,0,0,0,2.87-3.56C38.57,10.13,41.32,6,51.39,7.22c14,1.7,15.3,13.69,15.35,14.2a2.51,2.51,0,0,0,0,.27,18.45,18.45,0,0,1-.06,6.06c-1.66-3.66-4-6.78-7.65-8.09a2.05,2.05,0,0,0-2.19.58S53.48,24,44.33,25.13a22.35,22.35,0,0,1-5.66,0,2,2,0,0,0-1.15.2,10.16,10.16,0,0,0-4.17,3.95,26,26,0,0,1,0-3.92,2,2,0,0,0-1.22-2,27.07,27.07,0,0,1-3.54-1.82C29.76,20.43,31.39,18.94,33.28,17.35Z"
     id="path4"
     style="fill:#000000" />
  <path
     style="fill:#ffffff;stroke:#000000;stroke-width:0.214687"
     d="m 48.886414,56.666239 c -0.09187,-0.02935 -0.492761,-0.157162 -0.890868,-0.284017 -3.356252,-1.06946 -8.499133,-5.194426 -10.751181,-8.623231 -0.835628,-1.272267 -1.521258,-3.358809 -1.916535,-5.832488 -0.26945,-1.686237 -0.265613,-5.297354 0.0069,-6.536191 0.583592,-2.652568 1.614389,-4.675458 2.922981,-5.736212 l 0.509144,-0.412715 2.025236,0.06621 c 3.022883,0.09883 5.495029,-0.198476 8.92341,-1.07316 2.980329,-0.760373 5.75384,-1.949715 7.912634,-3.393109 0.602308,-0.402709 1.141052,-0.732199 1.19721,-0.732199 0.05616,0 0.390952,0.22693 0.743985,0.504289 1.831116,1.438607 3.505393,4.432428 4.888696,8.741613 0.440204,1.371297 0.446699,1.416341 0.51425,3.565654 0.126016,4.009669 -0.439013,7.466998 -1.613149,9.870615 -1.755935,3.59464 -7.60382,8.483665 -11.617004,9.712197 -0.72219,0.221079 -2.377872,0.315432 -2.855753,0.16274 z"
     id="path1149" />
  <path
     style="fill:#ffffff;stroke:#000000;stroke-width:0.214687"
     d="m 33.35385,28.357619 c -0.04393,-0.378524 -0.04411,-1.308373 -3.9e-4,-2.066329 0.126585,-2.194711 -0.0031,-2.381887 -2.507135,-3.618386 -0.888084,-0.43854 -1.729131,-0.885083 -1.868992,-0.992319 L 28.72304,21.48561 30.146598,20.195021 c 0.782957,-0.709825 1.87456,-1.673018 2.425785,-2.14043 1.332996,-1.130315 2.31399,-2.262053 3.535768,-4.07909 1.891981,-2.813766 2.864262,-3.914592 4.346533,-4.9211827 2.517963,-1.709916 6.096934,-2.3237018 10.547543,-1.8088809 7.277976,0.8418744 12.300517,4.4118476 14.693153,10.4437476 1.032218,2.602249 1.435887,6.167625 1.050638,9.27965 l -0.07141,0.576853 -0.492077,-0.964358 c -1.629642,-3.193741 -4.008617,-5.662628 -6.466994,-6.711412 -0.871066,-0.371612 -1.735275,-0.426395 -2.287881,-0.145032 -0.196012,0.0998 -0.606942,0.415743 -0.913178,0.702095 -2.385955,2.231029 -6.966549,3.972591 -12.193764,4.636125 -1.216671,0.154442 -1.979356,0.177234 -3.999632,0.119525 l -2.496289,-0.07131 -0.733109,0.401629 c -0.40321,0.220897 -1.068233,0.675033 -1.47783,1.009193 -0.682606,0.55689 -1.787758,1.793013 -2.065562,2.310353 -0.09338,0.173903 -0.129331,0.08611 -0.194441,-0.474881 z"
     id="path1188" />
  <path
     style="fill:#ffffff;stroke:#000000;stroke-width:0.214687"
     d="m 37.632953,69.749821 c -1.31338,-3.37049 -2.402004,-6.165835 -2.419164,-6.211879 -0.02601,-0.0698 0.884545,-0.871887 1.939985,-1.708887 0.248564,-0.197119 0.261616,-0.186453 4.682486,3.826552 2.438275,2.213322 4.571954,4.158277 4.741507,4.322123 l 0.30828,0.2979 -3.185112,2.612742 c -1.751812,1.437008 -3.296466,2.697538 -3.432565,2.801177 l -0.247453,0.188434 z"
     id="path1227" />
  <path
     style="fill:#ffffff;stroke:#000000;stroke-width:0.214687"
     d="m 56.568834,73.104003 c -1.867313,-1.524022 -3.379017,-2.810808 -3.359341,-2.859525 0.01967,-0.04872 2.142684,-2.007849 4.717798,-4.353628 4.166992,-3.795887 4.702043,-4.247981 4.864004,-4.109868 0.100088,0.08535 0.598157,0.495536 1.10682,0.911522 0.508662,0.415985 0.902719,0.812196 0.875682,0.880469 -0.02704,0.06827 -1.112771,2.855201 -2.412742,6.193174 -1.29997,3.337973 -2.371126,6.077989 -2.380345,6.088924 -0.0092,0.01094 -1.544563,-1.227045 -3.411876,-2.751068 z"
     id="path1266" />
  <path
     style="fill:#ffffff;stroke:#000000;stroke-width:0.214687"
     d="m 46.12738,79.147256 -1.367051,-1.742166 0.253466,-0.245576 c 0.839729,-0.813588 4.937165,-4.052524 5.06474,-4.003569 0.08336,0.03199 1.294715,0.996213 2.691891,2.142718 l 2.540321,2.084556 -1.392398,1.759393 -1.392399,1.759392 -2.515759,-0.0063 -2.515759,-0.0063 z"
     id="path1305" />
  <path
     style="fill:#ffffff;stroke:#000000;stroke-width:0.214687"
     d="m 45.496567,91.842984 c 0.214692,-0.59716 0.856169,-2.363585 1.425505,-3.925389 l 1.035155,-2.839644 h 2.042242 2.042242 l 1.425495,3.89755 c 0.784022,2.143653 1.427087,3.910078 1.429033,3.92539 0.0019,0.01531 -2.200012,0.02784 -4.893241,0.02784 h -4.89678 z"
     id="path1344" />
  <path
     style="fill:#ffffff;stroke:#000000;stroke-width:0.214687"
     d="m 8.7973274,88.60537 c 0,-4.846183 0.076844,-5.631413 0.7305057,-7.464654 0.4578755,-1.284145 1.1042539,-2.429295 2.0106519,-3.562153 0.793386,-0.991609 1.386159,-1.519565 3.105168,-2.765628 4.603648,-3.337062 9.537757,-6.207121 13.045726,-7.588405 1.53039,-0.6026 3.889491,-1.32866 3.990114,-1.228036 0.03355,0.03355 1.29568,3.238152 2.804732,7.121339 1.509053,3.883188 2.863909,7.223255 3.010789,7.422373 0.324696,0.440173 0.760645,0.677786 1.405759,0.766209 0.601914,0.0825 1.233229,-0.177584 2.019531,-0.831995 0.304051,-0.253051 0.589037,-0.423227 0.633302,-0.378169 0.04426,0.04506 0.655055,0.806485 1.357314,1.692061 l 1.276833,1.610138 -0.195398,0.505675 c -0.107469,0.278121 -0.890512,2.422434 -1.740097,4.76514 L 40.70756,92.928731 H 24.752443 8.7973274 Z"
     id="path1383" />
  <path
     style="fill:#ffffff;stroke:#000000;stroke-width:0.214687"
     d="m 57.5671,88.160265 -1.73134,-4.767246 1.285906,-1.616601 c 0.707249,-0.889131 1.336018,-1.627919 1.397265,-1.641753 0.06125,-0.01383 0.386971,0.195594 0.723831,0.465396 0.967386,0.774811 1.663655,0.922535 2.518495,0.534335 0.252099,-0.114482 0.583163,-0.376466 0.735697,-0.582186 0.152535,-0.20572 1.494327,-3.531052 2.981762,-7.389626 1.487434,-3.858575 2.747763,-7.063554 2.800732,-7.122175 0.06028,-0.06671 0.564651,0.02908 1.348295,0.256064 4.325175,1.252825 9.806701,4.230649 15.895642,8.635263 2.953965,2.136837 4.466217,4.242333 5.321958,7.409715 0.284697,1.053756 0.288537,1.121335 0.331085,5.8267 l 0.04305,4.76058 -15.960516,-6.1e-4 -15.960517,-6.09e-4 z"
     id="path1422" />
</svg>
